<svg version="1.1" id="Layer_1" xmlns="http://www.w3.org/2000/svg" xmlns:xlink="http://www.w3.org/1999/xlink" x="0px" y="0px"
	 width="100%" viewBox="0 0 1024 1024" enable-background="new 0 0 1024 1024" xml:space="preserve">
<path fill="#000000" opacity="1.000000" stroke="none" 
	d="
M719.244202,535.555908 
	C714.951416,511.739502 710.769043,488.340302 706.603088,464.938171 
	C706.103882,462.133972 704.804260,460.139435 702.067749,458.869293 
	C683.907532,450.440155 664.914673,445.508362 644.897217,444.138397 
	C626.561096,442.883484 608.301697,442.824890 590.046509,445.138702 
	C587.481995,445.463806 584.763367,445.855743 581.730042,444.500366 
	C581.730042,440.847260 581.817017,437.059967 581.702087,433.278809 
	C581.612732,430.338623 583.284119,429.239777 585.779968,428.492096 
	C590.762878,426.999268 595.921753,426.445892 601.023499,426.008209 
	C634.160645,423.165283 666.938599,424.047150 698.374634,436.717560 
	C704.550659,439.206848 710.575684,442.068420 716.708008,444.669586 
	C720.218018,446.158478 722.338196,448.548553 722.903625,452.427399 
	C723.621887,457.355286 724.622681,462.241302 725.429565,467.157196 
	C725.918884,470.138275 727.212769,471.642761 730.577820,472.009979 
	C736.070801,472.609436 741.547119,472.582092 747.037598,472.707703 
	C760.113647,473.006866 765.295410,476.949005 767.523621,489.691345 
	C772.675964,519.155823 777.398315,548.695129 782.400635,578.186218 
	C785.957336,599.154236 789.558105,620.116272 793.370056,641.039001 
	C798.316711,668.189636 802.135376,695.548523 808.306396,722.472839 
	C809.347534,727.015686 810.631897,731.477173 810.324402,736.236023 
	C809.741333,745.258728 802.848755,752.398254 793.850159,753.401917 
	C775.519409,755.446411 757.259216,753.506836 738.982727,752.574341 
	C726.680908,751.946777 714.393433,751.030151 702.089905,750.445068 
	C663.623230,748.615845 625.128052,749.474976 586.643311,749.312622 
	C583.812439,749.300720 582.047058,750.524841 580.375671,752.628967 
	C565.479675,771.381714 546.763184,784.347534 522.583313,786.741333 
	C488.700897,790.095703 459.248749,780.868652 437.681335,752.797180 
	C435.770844,750.310608 433.766418,749.156616 430.584229,749.198853 
	C396.096985,749.657288 361.595581,749.555725 327.124298,750.533508 
	C304.342316,751.179626 281.599762,753.283203 258.846069,754.829895 
	C248.855240,755.508972 238.828491,754.863953 228.871048,755.508240 
	C216.645432,756.299316 207.276291,743.806580 210.003830,732.260925 
	C216.361450,705.349060 219.326218,677.865662 224.316895,650.727417 
	C229.219589,624.067627 234.261703,597.418335 238.352951,570.628540 
	C242.596939,542.838684 247.788513,515.228271 252.641830,487.552734 
	C254.224823,478.525909 258.459473,475.152161 267.587250,474.612091 
	C275.226227,474.160095 282.838654,473.273407 290.469513,472.663055 
	C293.167114,472.447266 294.187042,470.781586 294.600494,468.455261 
	C295.357330,464.196899 296.383179,459.958618 296.749390,455.665253 
	C297.270844,449.551666 300.558624,446.245789 306.067810,444.074432 
	C315.992462,440.162689 326.106445,436.852905 336.233124,433.537537 
	C366.471832,423.637695 397.224701,422.248932 428.417175,427.712036 
	C435.075134,428.878113 435.385925,429.315948 435.351898,436.072876 
	C435.299927,446.393066 435.272675,446.587341 424.848480,445.123505 
	C406.769165,442.584778 388.669098,442.556732 370.549103,444.258057 
	C356.356903,445.590546 343.087769,450.614014 329.467987,454.398499 
	C316.500183,458.001831 311.767792,465.345459 310.153534,478.268463 
	C307.108856,502.642517 302.163422,526.777771 298.066284,551.022095 
	C293.193665,579.855103 288.374573,608.697205 283.550385,637.538391 
	C282.437622,644.190918 283.718872,645.407410 290.301788,643.387390 
	C303.809326,639.242493 316.804901,633.599792 330.641174,630.348022 
	C361.311829,623.139771 391.885956,623.084473 422.625397,629.888000 
	C451.583649,636.297363 476.219788,650.314148 497.271362,670.972595 
	C498.068359,671.754700 498.805176,672.771423 500.526764,672.522705 
	C501.341614,670.081604 501.103180,667.429688 501.059357,664.840332 
	C500.249603,617.015442 500.625610,569.191223 501.093872,521.366943 
	C501.105286,520.200562 500.973175,519.015747 501.132050,517.870667 
	C501.900360,512.332825 499.830994,509.705841 494.071808,508.257477 
	C480.889069,504.942108 472.078644,496.247864 467.467438,483.449585 
	C466.564545,480.943665 465.439667,478.939819 462.665466,478.260498 
	C450.482208,475.277161 446.904602,465.850647 446.976227,455.110565 
	C447.099457,436.628082 446.323456,418.150543 447.209137,399.647125 
	C447.718903,388.997070 444.615112,379.051483 436.294922,371.180817 
	C422.796753,358.411835 410.833527,344.382935 402.585480,327.486176 
	C380.037231,281.294342 389.160187,220.882507 429.726044,184.597244 
	C452.707153,164.041122 479.495880,153.643158 510.492096,152.505325 
	C563.634460,150.554565 620.362244,196.339462 627.456848,256.576843 
	C632.838562,302.270447 617.466797,339.647156 583.322510,369.741180 
	C572.224304,379.522919 568.525452,391.921753 569.513123,406.091370 
	C570.754333,423.898743 570.516785,441.730316 570.098022,459.530884 
	C569.884827,468.591034 564.225098,474.926331 555.778076,478.307373 
	C552.564270,479.593750 551.353638,481.748840 549.883179,484.869690 
	C545.174683,494.862976 538.134521,503.005310 527.373291,507.090576 
	C525.510376,507.797791 523.595215,508.444702 521.647095,508.833374 
	C518.029236,509.555145 516.944519,511.671814 516.957581,515.242310 
	C517.143982,566.235535 517.220032,617.229187 517.344788,668.222656 
	C517.348633,669.812988 516.969849,671.572083 518.746155,673.050781 
	C523.734253,668.918762 528.709656,664.833374 533.646301,660.701660 
	C555.451965,642.451477 580.909119,632.472473 608.623413,627.659973 
	C647.686401,620.876770 685.490051,626.551941 722.562561,639.316162 
	C727.085938,640.873474 731.627136,642.379211 737.274292,644.284912 
	C731.196533,607.538452 725.278076,571.755310 719.244202,535.555908 
M509.464111,394.901733 
	C513.338257,395.276337 514.921753,393.550964 514.695740,389.655884 
	C514.357239,383.825806 514.773193,378.008484 515.824524,372.259827 
	C516.695190,367.499268 519.819092,364.637573 523.772095,364.745026 
	C528.817017,364.882141 529.395386,368.717590 529.922424,372.382660 
	C530.226990,374.500519 530.114807,376.704834 529.968994,378.855225 
	C529.687622,383.003967 529.414795,387.165863 528.822266,391.276733 
	C528.373291,394.391815 529.486877,395.693176 532.521057,395.557983 
	C537.161926,395.351196 541.802490,394.971008 546.442871,394.975891 
	C549.655823,394.979248 550.868530,393.215149 551.440430,390.523987 
	C554.119812,377.915466 560.776123,367.700623 569.417603,358.256531 
	C576.217163,350.825409 585.865540,345.328674 587.763916,334.100220 
	C587.811951,333.816254 588.110962,333.465851 588.381714,333.344360 
	C594.667969,330.524689 596.968384,324.202118 599.658997,318.901215 
	C612.217590,294.159119 614.290771,268.101501 605.474976,241.875717 
	C591.956726,201.660690 563.864563,177.596573 521.799377,171.161087 
	C480.180176,164.793839 443.900482,186.022430 423.367676,218.717102 
	C411.909241,236.962524 408.162018,257.132782 409.116241,278.462555 
	C410.570465,310.969391 424.528778,337.250366 448.634888,358.441864 
	C456.156494,365.054016 461.047363,373.048218 464.144318,382.417450 
	C465.528687,386.605591 463.714661,392.767853 467.804596,394.741364 
	C471.380920,396.467041 476.565277,394.728394 481.036682,394.773621 
	C484.457520,394.808197 485.792419,393.423889 485.713409,389.992554 
	C485.594604,384.835266 485.547302,379.647644 485.972015,374.514496 
	C486.400146,369.340149 489.208496,366.898682 493.983734,366.662201 
	C499.057892,366.410950 501.034485,368.227325 502.486786,373.742676 
	C503.830292,378.845062 503.038452,384.026123 503.512054,389.149506 
	C503.803070,392.297424 504.314392,395.284546 509.464111,394.901733 
M261.054810,665.698425 
	C263.582031,650.783813 266.166565,635.878662 268.623779,620.952515 
	C272.887604,595.052490 277.001648,569.127686 281.317291,543.236450 
	C283.912292,527.668213 286.808105,512.150208 289.456757,496.590637 
	C289.755188,494.837524 290.820984,492.434082 287.889130,491.582031 
	C281.997925,489.869995 276.869568,493.283112 276.275604,499.255585 
	C276.226196,499.752380 276.178009,500.250702 276.095581,500.742676 
	C269.315491,541.214966 262.670227,581.710510 255.700226,622.150085 
	C251.044373,649.163147 246.021332,676.114563 240.907898,703.045227 
	C240.177399,706.892578 241.178802,707.719116 244.685715,707.786499 
	C256.359131,708.010864 268.056274,707.747803 279.597351,706.320862 
	C302.238159,703.521606 325.002380,702.477173 347.718384,700.890869 
	C370.308014,699.313354 392.992371,699.455750 415.602753,700.856018 
	C432.244965,701.886597 448.643097,704.864197 464.421387,710.415527 
	C467.465240,711.486450 469.315308,711.282715 471.469666,709.156494 
	C477.034332,703.664612 482.175354,697.717224 488.554382,693.086609 
	C490.557648,691.632446 490.934326,690.097229 488.914917,688.201782 
	C485.882965,685.355957 483.115204,682.222473 480.021484,679.449646 
	C457.086060,658.893433 430.212433,647.066162 399.602386,644.177063 
	C366.308228,641.034546 333.854828,644.964111 302.490143,656.972168 
	C290.529724,661.551147 278.842651,666.843079 266.566620,670.612000 
	C262.560028,671.842102 260.847290,670.673889 261.054810,665.698425 
M541.193481,675.687378 
	C536.529358,680.359375 531.865173,685.031372 527.258545,689.645752 
	C529.409912,693.060364 532.257568,694.572083 534.837585,696.319092 
	C538.740356,698.961914 542.436462,701.872314 545.062317,705.761658 
	C548.446411,710.774170 552.485596,711.245605 558.011963,709.564026 
	C578.477539,703.336609 599.374084,699.851929 620.873962,699.647400 
	C647.374451,699.395264 673.766968,701.045105 700.210571,702.288513 
	C725.501465,703.477539 750.580017,706.555542 775.778687,708.461304 
	C779.073120,708.710449 779.971802,707.440491 779.210327,704.337463 
	C777.623596,697.872009 775.873962,691.424500 774.733398,684.875305 
	C769.255005,653.417175 763.203552,622.062439 758.338501,590.492126 
	C753.424805,558.605957 747.875122,526.817932 742.692566,494.972534 
	C742.307190,492.604675 741.529297,491.272858 738.991089,491.321869 
	C736.224426,491.375305 733.455994,491.333984 730.774475,491.333984 
	C730.065125,493.240387 730.294250,494.899841 730.595886,496.525970 
	C733.383728,511.552612 736.173645,526.579041 739.020142,541.594604 
	C740.460693,549.193970 742.076050,556.760254 743.504639,564.361755 
	C744.524597,569.789490 743.794067,575.520325 747.936951,580.316833 
	C749.442627,582.060059 750.330750,585.605530 747.299622,587.947205 
	C746.326538,588.699036 746.906921,589.747925 747.071655,590.724548 
	C749.667236,606.112732 752.062927,621.536987 754.872498,636.885681 
	C756.488281,645.712708 758.134460,654.522400 759.130615,663.442261 
	C759.877563,670.131165 757.780151,672.022522 751.332886,670.525391 
	C744.329529,668.899048 737.596619,666.396240 731.089600,663.446594 
	C700.281006,649.481262 668.067993,642.688538 634.200745,643.267517 
	C599.827820,643.855225 568.511047,652.871399 541.193481,675.687378 
M463.583313,743.725403 
	C463.116730,742.129272 462.695557,740.518188 462.174255,738.940186 
	C461.054474,735.550659 458.608093,734.470703 455.536682,735.966614 
	C452.403381,737.492554 452.778259,740.125793 454.294678,742.766479 
	C455.245300,744.421936 456.648590,745.490051 458.327606,746.357056 
	C460.828217,747.648315 463.315491,748.903809 465.341797,751.029358 
	C470.590485,756.535095 475.882568,761.857666 483.547638,764.292725 
	C513.576782,773.832520 539.944458,768.365112 562.600952,746.004822 
	C565.627869,743.017517 566.727234,739.790833 566.936340,735.867188 
	C567.153503,731.791382 565.291870,729.946899 561.233032,730.358398 
	C558.322021,730.653503 556.108337,731.756531 554.103149,734.233215 
	C541.766418,749.470398 526.041626,758.608215 506.049774,757.062561 
	C491.308411,755.922791 477.354279,750.852356 463.583313,743.725403 
M258.764526,724.322266 
	C249.973801,724.960693 241.187134,725.666809 232.389740,726.193665 
	C229.954407,726.339478 228.175247,726.969604 227.504578,729.505127 
	C226.803696,732.154724 228.338531,733.575562 230.376190,734.665527 
	C232.769043,735.945557 235.388062,736.606567 238.063187,736.621094 
	C246.725189,736.668152 255.432709,737.117859 264.041931,736.418335 
	C287.918671,734.478333 311.715027,731.514709 335.698700,730.987183 
	C341.743927,730.854248 345.501373,727.054260 349.502594,723.239868 
	C344.769928,717.795532 338.897217,718.873230 333.353882,719.003174 
	C308.717651,719.580750 284.293640,723.169678 258.764526,724.322266 
M535.539185,729.040405 
	C537.344238,726.889160 541.041687,724.557312 536.292480,722.143005 
	C527.960022,717.906982 520.623840,712.148132 512.652222,707.374329 
	C510.088989,705.839294 507.597839,705.515869 505.085510,706.644653 
	C495.638397,710.889221 488.023285,717.824951 479.576996,723.511841 
	C491.637177,741.865906 518.382568,744.511414 535.539185,729.040405 
M519.500000,413.240082 
	C503.338165,413.265808 487.176147,413.340088 471.014648,413.275970 
	C467.811371,413.263245 465.880768,413.972870 466.123596,417.695435 
	C466.324524,420.776123 465.972748,423.708466 470.620697,423.684784 
	C495.611908,423.557434 520.604004,423.592712 545.595764,423.591614 
	C549.324524,423.591431 550.961121,421.937988 550.905090,418.084229 
	C550.848877,414.214478 548.818298,413.293365 545.492126,413.308197 
	C537.161682,413.345306 528.830750,413.269440 519.500000,413.240082 
M491.501984,463.693939 
	C494.501282,463.693298 497.500580,463.690430 500.499878,463.692383 
	C514.495422,463.701569 528.491577,463.785248 542.486267,463.678955 
	C546.862122,463.645752 551.350952,459.797119 550.728760,456.651581 
	C549.837891,452.147614 545.893311,453.420227 542.999329,453.403870 
	C520.505371,453.276825 498.010590,453.287903 475.516052,453.265228 
	C474.184326,453.263885 472.826294,453.187164 471.526062,453.410614 
	C468.549622,453.922058 467.345581,455.484833 469.198730,458.298889 
	C471.389038,461.625031 473.990875,464.170959 478.510498,463.853363 
	C482.492188,463.573547 486.504547,463.730194 491.501984,463.693939 
M508.861053,482.400635 
	C505.058472,482.671112 501.270905,483.117584 497.442841,482.497803 
	C495.961945,482.258087 494.299500,482.523010 493.629486,484.160004 
	C492.998230,485.702148 494.343201,486.566925 495.284119,487.458252 
	C501.836456,493.664978 517.365540,493.631622 523.919739,487.421875 
	C524.901489,486.491699 525.939941,485.569794 525.480591,484.033875 
	C524.999451,482.424957 523.599792,482.338501 522.246887,482.336761 
	C518.095642,482.331451 513.944397,482.360992 508.861053,482.400635 
M690.840454,720.124268 
	C686.728638,720.815796 682.472656,721.017639 678.487427,723.473145 
	C687.920959,726.874817 699.676575,726.940186 704.336121,723.608521 
	C701.059753,718.952087 696.210815,720.142151 690.840454,720.124268 
z"/>
<path fill="#000000" opacity="1.000000" stroke="none" 
	d="
M446.059265,564.878723 
	C446.813354,566.212402 447.367828,567.240967 448.013397,568.208740 
	C453.509735,576.448242 453.413422,576.360657 447.207336,583.813965 
	C443.769928,587.942139 439.724579,591.368896 435.842682,595.014343 
	C432.165253,598.467712 428.597260,598.526917 424.648132,595.840393 
	C423.135193,594.811157 421.541229,593.879028 420.136658,592.718140 
	C418.492340,591.359192 416.979309,590.467529 414.759186,591.603760 
	C412.415558,592.803223 411.266937,594.472107 411.315155,597.134399 
	C411.366302,599.956543 411.260345,602.756592 410.585602,605.563721 
	C409.675018,609.351685 407.611511,611.361328 403.646515,611.350464 
	C394.816895,611.326233 385.986969,611.307983 377.157562,611.358215 
	C373.927216,611.376587 372.209442,609.830139 371.743866,606.716980 
	C371.227600,603.265320 370.908386,599.768127 370.136749,596.374146 
	C368.852905,590.727417 364.768158,589.417419 360.352936,593.043640 
	C351.462067,600.345825 350.542328,600.338318 342.360718,591.943909 
	C338.758850,588.248291 335.471985,584.246399 331.884308,580.536133 
	C329.000214,577.553467 329.154938,574.840942 331.729309,571.767273 
	C333.431213,569.735229 334.777008,567.402283 336.254150,565.185303 
	C338.515503,561.791382 336.999664,559.724915 333.606812,558.994568 
	C330.877686,558.407104 327.994232,558.375732 325.180267,558.385315 
	C321.860382,558.396667 320.247742,556.828430 320.019470,553.640869 
	C319.318359,543.849609 318.231171,534.081299 318.685059,524.229675 
	C318.865814,520.306091 320.533356,518.443848 324.573334,518.629150 
	C327.225586,518.750854 329.936676,518.757202 332.548370,518.348389 
	C337.618835,517.554810 338.758545,514.903381 335.813263,510.730560 
	C333.997803,508.158417 331.850067,505.795105 329.665619,503.516205 
	C327.444885,501.199432 327.596710,499.265228 329.913086,497.160950 
	C335.578491,492.014191 341.660583,487.312897 346.674622,481.465057 
	C348.662048,479.147186 350.622284,479.508514 352.550842,481.667084 
	C353.769958,483.031586 355.103851,484.296326 356.421356,485.569550 
	C358.480072,487.559113 360.389221,489.514160 363.808014,487.961456 
	C367.146759,486.445099 369.344788,484.369385 369.595673,480.589813 
	C369.606720,480.423615 369.616394,480.257141 369.620636,480.090668 
	C369.937927,467.667908 368.819092,468.740295 382.559967,467.874878 
	C389.696655,467.425446 396.891083,467.958710 404.042511,467.653290 
	C408.785980,467.450745 410.678986,469.777191 411.254364,473.986786 
	C411.636475,476.782318 411.861389,479.622345 412.530396,482.350800 
	C413.876221,487.839569 418.039490,489.238220 422.482300,485.870941 
	C430.815002,479.555511 430.817841,479.551880 439.005096,486.097565 
	C444.171661,490.228302 449.428528,494.262970 453.990570,499.425201 
	C451.514282,502.558899 449.055237,505.282043 447.042725,508.302704 
	C443.428406,513.727600 445.270386,517.242432 451.707550,517.637756 
	C465.050018,518.457153 465.051697,518.457214 465.025970,531.962524 
	C465.013916,538.292847 465.013550,544.623352 464.970367,550.953491 
	C464.943268,554.924438 463.821075,557.664062 458.938141,557.482239 
	C455.820648,557.366272 452.644531,558.021057 449.539948,558.580933 
	C446.249573,559.174255 444.335114,560.864502 446.059265,564.878723 
M341.536530,532.369812 
	C340.211273,532.480896 338.876465,532.525696 337.562500,532.715088 
	C333.071594,533.362488 334.210449,536.928711 334.032074,539.740234 
	C333.865295,542.369507 334.128418,545.494568 337.554474,545.066284 
	C346.369476,543.964294 349.928955,548.742004 351.480682,556.315857 
	C351.544952,556.629639 351.742401,556.935242 351.937897,557.200256 
	C355.667450,562.256592 354.959595,566.723022 350.201813,570.697083 
	C347.686951,572.797729 348.209442,574.862671 350.162476,577.114807 
	C353.872406,581.392822 355.435608,581.634888 359.226959,577.486511 
	C362.429810,573.982056 365.492920,572.425476 369.952026,575.574402 
	C372.208008,577.167542 375.011475,578.442444 377.718231,578.843506 
	C383.100464,579.641052 385.084198,582.250305 384.424988,587.595276 
	C384.047913,590.652527 384.399658,593.567749 388.869476,593.785034 
	C397.204620,594.190186 398.353241,593.953979 398.817505,588.653015 
	C399.315918,582.961853 400.385712,578.443359 407.454437,578.021240 
	C409.587555,577.893860 411.927521,576.410156 413.635071,574.928223 
	C417.864075,571.258057 421.104187,572.522766 424.254669,576.276428 
	C425.077301,577.256592 425.602875,578.634583 427.401337,578.964294 
	C428.201172,578.490845 429.224854,577.967651 430.160004,577.317139 
	C434.579376,574.242920 434.647064,573.303955 430.811127,569.288696 
	C430.351074,568.807190 429.892792,568.311829 429.370361,567.903870 
	C426.175781,565.409119 426.198853,562.711975 428.792084,559.806152 
	C430.825928,557.527100 432.713745,554.893677 432.925598,551.948059 
	C433.366089,545.822632 437.438202,545.061951 442.118713,544.769775 
	C443.614716,544.676392 445.116150,544.673340 446.614258,544.609131 
	C448.070404,544.546692 449.074615,543.970459 449.592468,542.459412 
	C451.773132,536.096375 449.181549,532.311707 442.553528,532.290833 
	C441.220490,532.286621 439.887268,532.254211 438.554504,532.269226 
	C436.007111,532.297913 434.237518,531.128723 434.086609,528.569275 
	C433.749908,522.858826 431.254364,518.009155 428.386841,513.296692 
	C426.873840,510.810394 427.355804,509.089661 429.641541,507.350037 
	C431.532715,505.910706 433.955231,504.710052 434.208466,501.890076 
	C427.696167,495.939789 426.972321,495.806671 422.054443,502.198639 
	C419.849823,505.064087 418.015289,504.891174 415.345398,503.343353 
	C412.473724,501.678497 409.564545,499.373718 406.458282,498.963104 
	C399.757629,498.077454 397.912781,494.527679 398.637207,488.458435 
	C398.843719,486.728333 399.092102,484.287750 396.817322,483.785065 
	C392.913391,482.922363 388.648743,482.541107 384.985840,483.874939 
	C382.140259,484.911133 383.348389,488.661499 383.512939,491.109680 
	C383.790985,495.246002 381.908112,496.736420 378.204285,497.238220 
	C374.716949,497.710663 371.425110,498.921783 368.444336,500.862488 
	C362.215851,504.917572 362.216400,504.918427 356.324829,499.828369 
	C353.560333,497.440063 349.450531,498.056091 348.157043,501.200226 
	C346.995422,504.023865 348.993134,506.049927 350.617432,507.808990 
	C353.702972,511.150543 353.931488,514.426941 351.517609,518.188416 
	C349.530823,521.284363 348.077026,524.651306 347.276550,528.272400 
	C346.699677,530.881958 345.143005,532.340454 341.536530,532.369812 
z"/>
<path fill="#000000" opacity="1.000000" stroke="none" 
	d="
M635.000000,601.951050 
	C616.693420,601.961914 598.874756,601.764160 581.161438,604.030396 
	C575.188904,604.794434 569.536804,606.885254 563.891113,608.876587 
	C561.117859,609.854858 558.301208,611.211243 556.702454,607.481812 
	C555.141052,603.839478 554.222473,599.926392 558.214600,597.148376 
	C563.359802,593.568054 569.359192,592.051880 575.390564,590.705750 
	C595.553345,586.205688 616.046143,586.598938 636.513367,586.500549 
	C654.502136,586.414062 672.404297,587.335144 690.121338,590.662048 
	C692.401001,591.090149 694.625793,591.813477 696.907227,592.229065 
	C704.297913,593.575623 704.257568,598.910278 702.395142,604.985413 
	C701.529114,607.810425 699.107910,607.561462 696.999329,607.102661 
	C676.720520,602.690430 656.168457,601.649780 635.000000,601.951050 
z"/>
<path fill="#000000" opacity="1.000000" stroke="none" 
	d="
M627.923828,550.360352 
	C605.547241,551.283325 583.500610,550.893677 562.082275,556.774963 
	C559.233032,557.557373 557.695984,556.420654 556.460938,554.080139 
	C555.134521,551.566528 555.068970,549.340454 557.428955,547.389343 
	C560.190491,545.106201 563.431091,543.802246 566.833618,542.933105 
	C592.119629,536.474182 617.867126,536.035522 643.710693,537.309143 
	C657.156067,537.971863 670.680420,537.925415 683.947327,540.691772 
	C688.497925,541.640686 693.045410,542.686829 697.492310,544.026855 
	C701.459839,545.222534 703.052246,548.205688 701.913147,552.217407 
	C700.835022,556.013977 698.161743,556.549377 694.462280,555.893860 
	C676.243408,552.665649 657.814331,551.597046 639.352173,550.965576 
	C635.694641,550.840454 632.042114,550.567993 627.923828,550.360352 
z"/>
<path fill="#000000" opacity="1.000000" stroke="none" 
	d="
M566.384949,581.448975 
	C564.701233,581.878723 563.390015,582.131592 562.126831,582.534790 
	C559.472473,583.381775 557.651367,582.648010 556.464600,580.042236 
	C555.265137,577.408630 555.597473,575.256897 557.833252,573.355225 
	C562.583374,569.315002 568.316040,567.765808 574.266113,566.691895 
	C607.138428,560.759033 640.158447,561.916809 673.226196,564.473633 
	C680.698120,565.051453 688.100220,565.879944 695.369751,567.701294 
	C698.431824,568.468506 700.873169,570.022949 701.761292,573.329834 
	C703.085266,578.259155 700.199829,581.425293 695.369690,580.523438 
	C682.097412,578.045105 668.657593,577.203552 655.194946,577.062683 
	C633.574341,576.836487 611.941467,575.302979 590.331543,577.301208 
	C582.382629,578.036194 574.513794,579.316345 566.384949,581.448975 
z"/>
<path fill="#000000" opacity="1.000000" stroke="none" 
	d="
M693.362183,531.032837 
	C683.756348,528.147644 674.210144,528.108032 664.782898,527.478577 
	C648.851807,526.414856 632.889038,525.820862 616.937744,525.069946 
	C614.247742,524.943298 611.475525,524.869263 609.255615,523.296326 
	C606.187500,521.122375 603.065674,521.056458 599.794250,522.329895 
	C595.121460,524.148804 590.441956,524.464966 585.631226,522.946289 
	C582.552856,521.974426 579.967896,522.837646 578.279297,525.595337 
	C573.935364,532.689758 566.393005,532.046021 559.709290,533.113098 
	C556.709534,533.592041 555.719238,530.454102 555.087097,528.067871 
	C554.377808,525.390686 556.448303,524.198486 558.480774,523.280212 
	C570.263306,517.956787 582.656982,515.186401 595.488770,513.698914 
	C615.583374,511.369537 635.690002,511.971405 655.790588,512.815674 
	C667.064758,513.289246 678.268677,514.937439 689.288452,517.498047 
	C691.855713,518.094604 694.445984,518.960449 696.755676,520.203796 
	C699.662781,521.768738 702.862671,523.655151 701.624573,527.823853 
	C700.427551,531.854309 697.029175,531.504333 693.362183,531.032837 
z"/>
<path fill="#000000" opacity="1.000000" stroke="none" 
	d="
M346.321167,258.930237 
	C346.456879,265.963226 346.452789,265.932587 353.204041,265.034088 
	C356.011902,264.660400 358.811432,264.557373 361.630615,265.269562 
	C365.666351,266.289124 368.132141,268.643494 368.257080,272.879852 
	C368.379242,277.022278 365.542664,279.055908 362.166962,280.498047 
	C359.308777,281.719086 356.259979,281.273560 353.280182,281.329437 
	C346.714294,281.452545 346.482178,281.616669 346.309235,288.002014 
	C346.193298,292.282684 345.283508,296.286255 342.318024,299.527344 
	C339.113281,303.029999 336.078125,302.850220 333.190704,299.065155 
	C330.415100,295.426697 330.009064,291.024536 329.821594,286.737274 
	C329.649261,282.796356 327.695709,281.433075 324.178345,281.396942 
	C320.681885,281.360992 317.182007,281.440674 313.689301,281.313843 
	C308.875763,281.139069 305.825226,277.868713 305.699371,272.940399 
	C305.590607,268.681610 308.399261,265.983337 313.443726,265.723114 
	C316.266724,265.577454 319.103546,265.690125 321.934113,265.702271 
	C329.480530,265.734558 329.576355,265.699829 329.637665,258.337097 
	C329.660065,255.645599 330.097595,253.053818 330.671722,250.448257 
	C331.546326,246.479172 334.061035,244.358810 338.002625,244.200195 
	C341.995972,244.039459 344.073212,246.668884 344.978119,250.143448 
	C345.684753,252.856812 345.888275,255.701218 346.321167,258.930237 
z"/>
<path fill="#000000" opacity="1.000000" stroke="none" 
	d="
M680.709167,242.880432 
	C686.927002,245.079834 688.249695,249.795334 688.329590,255.329010 
	C688.480774,265.806732 688.519775,265.795929 698.881042,265.688110 
	C701.709717,265.658661 704.564148,265.476929 707.363098,265.774750 
	C713.057312,266.380585 715.465149,272.410278 711.944885,276.950714 
	C709.640503,279.922852 706.519897,281.257782 702.821045,281.298553 
	C699.492493,281.335266 696.152161,281.473969 692.837280,281.257355 
	C689.301514,281.026337 688.066223,282.502747 688.267578,285.921906 
	C688.547302,290.674591 687.813232,295.251282 684.644043,299.075775 
	C681.244385,303.178528 677.971985,302.941650 675.127014,298.420380 
	C672.813782,294.744202 672.712524,290.498688 672.313965,286.390564 
	C671.914429,282.272614 670.214722,280.428192 665.875977,281.162598 
	C663.609619,281.546204 661.214478,281.409668 658.900818,281.221344 
	C654.407959,280.855621 650.850220,276.847717 650.936218,272.491272 
	C651.015015,268.500183 654.231445,265.918060 659.201843,265.653961 
	C663.323486,265.434967 668.490112,267.389893 671.287048,264.791046 
	C674.024719,262.247253 671.835205,256.960266 672.728943,252.973343 
	C673.739136,248.466949 674.140259,243.465485 680.709167,242.880432 
z"/>
<path fill="#000000" opacity="1.000000" stroke="none" 
	d="
M631.663696,492.254883 
	C637.605896,488.735840 643.781433,489.197510 650.057068,488.541443 
	C664.822754,486.997894 678.421204,491.231567 692.330933,494.219818 
	C698.063416,495.451294 699.730957,498.373779 697.955139,502.570465 
	C696.948914,504.948425 695.442200,506.232727 692.539856,505.794434 
	C674.788879,503.113983 657.152161,499.450409 639.045166,499.771790 
	C636.167847,499.822845 633.034607,499.456024 631.001892,496.582550 
	C629.842468,494.943665 629.441528,493.661804 631.663696,492.254883 
z"/>
<path fill="#000000" opacity="1.000000" stroke="none" 
	d="
M359.939514,376.038391 
	C366.378754,369.060516 372.550842,362.326630 378.820831,355.685089 
	C381.485840,352.862122 384.700226,351.393982 388.704071,352.621826 
	C394.619080,354.435730 396.545990,359.349121 392.536377,363.987000 
	C385.587677,372.024445 378.262085,379.744202 370.906250,387.416656 
	C368.611755,389.809906 365.751343,391.694153 362.000610,390.641632 
	C355.078857,388.699371 354.293091,383.823334 359.939514,376.038391 
z"/>
<path fill="#000000" opacity="1.000000" stroke="none" 
	d="
M660.559570,386.199280 
	C656.483154,392.212433 654.828857,392.813782 649.554443,388.925568 
	C640.291199,382.096832 632.690796,373.422577 624.716003,365.213074 
	C621.420166,361.820160 622.006653,357.172150 624.985657,354.456787 
	C628.052795,351.661102 632.677124,351.900574 636.167114,355.340302 
	C643.277466,362.348175 650.358215,369.391998 657.243652,376.618774 
	C659.585205,379.076416 662.179260,381.801819 660.559570,386.199280 
z"/>
<path fill="#000000" opacity="1.000000" stroke="none" 
	d="
M358.574402,164.436737 
	C361.478485,156.322830 366.371002,154.870712 371.949036,160.624100 
	C378.542938,167.425201 385.307739,174.023972 392.218811,180.496841 
	C396.290192,184.310059 396.305847,188.113663 392.902954,191.785309 
	C389.794830,195.138916 385.802490,195.297226 381.920685,191.639191 
	C374.913361,185.035751 368.131653,178.192001 361.294159,171.409805 
	C359.487854,169.618118 358.034943,167.596054 358.574402,164.436737 
z"/>
<path fill="#000000" opacity="1.000000" stroke="none" 
	d="
M624.303467,188.402161 
	C623.808777,185.232941 624.644287,182.686890 626.514648,180.706497 
	C633.229187,173.597046 639.949951,166.484650 646.917725,159.626724 
	C650.624695,155.978134 654.756592,156.607712 658.071167,160.609680 
	C660.428955,163.456329 660.799194,166.237061 658.027161,168.983414 
	C650.253174,176.685425 642.582886,184.499405 634.606323,191.986404 
	C630.848022,195.514069 628.666931,194.608093 624.303467,188.402161 
z"/>
<path fill="#000000" opacity="1.000000" stroke="none" 
	d="
M432.791504,273.980743 
	C432.797516,268.818939 432.631226,264.143738 432.866486,259.488861 
	C433.140411,254.069809 435.280151,252.110352 440.623932,251.668350 
	C443.941895,251.393890 447.254456,251.053391 450.568451,250.731873 
	C453.678284,250.430161 454.313171,248.658447 452.783752,246.274689 
	C450.902435,243.342468 448.639435,240.657883 446.611115,237.816528 
	C444.652130,235.072296 444.557037,232.693100 447.927948,230.819504 
	C454.723602,227.042404 460.177734,221.728043 465.171692,215.818344 
	C469.478302,210.722076 470.019592,210.969818 475.381866,214.710175 
	C478.001160,216.537216 479.661621,220.720474 484.175354,218.826324 
	C488.747589,216.907593 487.551086,212.822693 487.906952,209.354843 
	C488.638031,202.230103 489.380096,201.268021 496.319824,201.061951 
	C505.647339,200.784958 514.984680,200.853836 524.314758,200.637924 
	C527.529297,200.563538 529.398315,201.606110 529.584229,205.042633 
	C529.736816,207.862305 530.154175,210.667511 530.311951,213.487091 
	C530.456848,216.076004 531.513123,217.834366 533.980835,218.886307 
	C536.406006,219.920120 538.431396,219.698273 540.431702,217.950333 
	C542.562622,216.088318 544.868225,214.427567 547.027771,212.596558 
	C549.636475,210.384766 551.916565,210.798660 553.817505,213.430023 
	C559.012146,220.620392 564.793579,227.245346 571.806763,232.740860 
	C573.619690,234.161469 573.385071,235.801987 572.152588,237.557159 
	C570.429993,240.010345 568.688354,242.465042 567.181335,245.051071 
	C565.309021,248.264008 566.141663,250.522781 569.994812,251.142517 
	C573.436707,251.696106 576.892273,252.250763 580.363831,252.510300 
	C584.024292,252.783997 585.210571,254.859726 585.217529,258.144501 
	C585.241028,269.310913 585.213623,280.478119 585.350891,291.643280 
	C585.402954,295.878693 582.991516,297.169983 579.389038,297.312927 
	C575.101196,297.483124 570.925842,298.158264 566.578857,299.184082 
	C567.262451,303.311981 569.680603,305.715088 571.839355,308.118835 
	C574.611938,311.206024 574.734497,313.749420 571.551941,316.593048 
	C564.815247,322.612305 559.059753,329.519012 553.817261,336.859009 
	C551.138672,340.609314 548.139038,341.131012 544.658203,337.899689 
	C543.560791,336.880920 542.357056,335.976440 541.196838,335.025818 
	C539.525391,333.656372 537.998169,332.065765 535.454956,333.344391 
	C532.802063,334.678101 530.290039,336.186798 530.422546,339.520081 
	C530.819031,349.491699 529.717346,349.847839 518.389893,350.186890 
	C511.063934,350.406158 503.736877,350.594452 496.412262,350.851349 
	C490.758209,351.049622 489.516083,349.917450 488.763733,344.187775 
	C488.296112,340.626617 489.980133,336.287476 485.195404,334.161835 
	C480.205292,331.945038 478.379303,336.596466 475.643555,338.710907 
	C471.717194,341.745636 468.629639,341.824310 465.266602,338.137238 
	C459.204681,331.491211 453.135223,324.844727 446.848358,318.414062 
	C443.461334,314.949554 443.614075,312.119324 446.752380,308.575104 
	C448.863220,306.191223 451.761963,304.068756 452.008026,300.215149 
	C447.816742,297.512299 442.921783,298.574097 438.455475,297.613708 
	C435.301514,296.935516 433.755219,295.683807 433.647827,292.439301 
	C433.449554,286.448822 433.089478,280.463715 432.791504,273.980743 
M467.411133,297.153534 
	C473.951263,304.283875 466.226135,306.660645 462.663177,310.033356 
	C463.828491,312.815338 465.899109,314.063995 467.566284,315.619965 
	C469.215546,317.159210 470.285309,319.422729 473.503815,320.363220 
	C473.986450,319.667694 474.705658,318.748657 475.299805,317.754883 
	C477.925964,313.362152 481.156250,313.064148 485.250458,315.889404 
	C488.578339,318.185852 492.455200,319.258362 496.469177,319.746490 
	C498.906250,320.042847 500.130981,321.102936 500.475647,323.841766 
	C501.589081,332.689026 501.731049,332.671448 510.501312,332.660370 
	C511.666779,332.658875 512.839050,332.571228 513.996399,332.666260 
	C516.703918,332.888580 518.577209,331.450958 518.231628,329.010010 
	C517.146301,321.345886 522.075684,319.694550 527.846802,318.166412 
	C530.681580,317.415833 533.348633,315.790192 535.887756,314.229004 
	C538.684570,312.509430 540.669006,312.981873 542.838074,315.350311 
	C547.402649,320.334503 547.492188,320.249390 551.973267,315.005463 
	C552.622009,314.246307 553.262756,313.475739 553.964783,312.767609 
	C556.222595,310.490295 556.228149,308.255005 553.433655,306.612091 
	C548.340942,303.618073 548.204773,299.946228 551.409668,295.511475 
	C551.983215,294.717834 552.552429,293.743011 552.641968,292.805817 
	C553.358276,285.309967 557.439880,282.689514 564.677734,283.944855 
	C567.464111,284.428162 569.521667,282.838409 568.786072,279.912750 
	C567.648193,275.387238 572.181091,267.458710 565.678894,266.787781 
	C556.370483,265.827240 552.938904,262.296814 551.524414,253.548111 
	C550.609070,247.886887 546.477783,242.566177 555.102905,238.923141 
	C551.487549,235.727066 549.215881,232.472031 545.559265,230.399200 
	C544.592285,231.260696 543.555603,231.892624 542.916077,232.803391 
	C539.784546,237.263290 536.253906,237.536362 531.869080,234.492615 
	C529.865479,233.101807 527.293457,231.561890 525.052490,231.666122 
	C518.807129,231.956589 518.096069,228.146805 517.895874,223.527008 
	C517.838196,222.196533 517.715210,220.868790 517.663025,219.538193 
	C517.586060,217.578232 516.715637,216.367538 514.641846,216.355911 
	C510.382965,216.332016 506.123840,216.348740 501.649902,216.348740 
	C501.083984,219.179779 501.554169,221.932465 501.896301,224.731964 
	C502.288147,227.938583 501.331635,230.276016 497.435059,230.390045 
	C494.566895,230.473969 491.624695,231.350510 489.453217,232.998581 
	C483.419983,237.577698 478.507263,235.973511 473.796844,231.102448 
	C473.613556,230.912918 473.174561,230.970673 472.333679,230.819580 
	C470.488068,232.767365 468.493134,234.983948 466.372925,237.073364 
	C464.807037,238.616531 464.353699,240.433304 465.863495,241.914978 
	C470.205017,246.175522 468.944397,250.343369 466.416321,254.894424 
	C465.408234,256.709198 465.130951,259.005432 464.841156,261.126221 
	C464.390686,264.422791 462.643463,265.476410 459.415619,265.456757 
	C456.039734,265.436157 452.502472,264.495117 449.347717,266.134613 
	C449.347717,270.547546 449.546631,274.705505 449.294586,278.835938 
	C449.013855,283.436829 450.904175,285.414276 455.433807,284.750519 
	C460.759186,283.970184 464.566833,285.015900 464.944214,291.452850 
	C465.044373,293.161346 466.332581,294.800232 467.411133,297.153534 
z"/>
<path fill="#000000" opacity="1.000000" stroke="none" 
	d="
M469.414307,204.001282 
	C464.466888,201.384842 462.088531,196.632446 463.495270,192.455658 
	C464.842865,188.454346 467.771515,186.088272 471.965820,185.806351 
	C476.503571,185.501358 478.773682,188.634857 480.495728,192.250458 
	C482.367645,196.180695 480.416626,198.965347 477.561005,201.354019 
	C475.342072,203.210129 472.839325,204.459427 469.414307,204.001282 
z"/>
<path fill="#000000" opacity="1.000000" stroke="none" 
	d="
M363.195587,674.249390 
	C351.727173,674.741455 340.994843,677.187317 330.119293,678.545776 
	C326.662994,678.977478 323.158020,679.004211 319.686615,679.334900 
	C314.643829,679.815125 312.537292,677.053528 311.502197,672.566101 
	C310.402740,667.799561 314.009460,666.762878 316.953735,665.631042 
	C325.868378,662.204041 335.336853,661.240601 344.717957,659.928528 
	C364.899536,657.105896 385.195282,656.026550 405.380066,658.852783 
	C424.663757,661.552795 443.760468,665.492859 460.372589,676.782532 
	C464.103027,679.317688 467.883789,681.750061 470.828491,685.204651 
	C472.052124,686.640076 474.123749,688.134766 472.560608,690.346313 
	C471.192566,692.281799 469.259369,691.059875 467.533844,690.579895 
	C467.083618,690.454651 466.568939,690.560974 466.107941,690.560974 
	C464.369110,692.831238 467.813477,694.572815 466.423218,696.893127 
	C464.071136,698.192749 462.161224,696.339294 460.175995,695.443604 
	C448.066498,689.980042 436.502289,683.351562 423.527710,679.783142 
	C409.616638,675.957092 395.585846,673.787842 381.152161,674.178711 
	C375.329315,674.336487 369.499390,674.232361 363.195587,674.249390 
z"/>
<path fill="#000000" opacity="1.000000" stroke="none" 
	d="
M449.789124,698.044006 
	C452.569031,699.118042 455.113098,699.855286 456.725800,702.290344 
	C450.770142,700.625977 444.559967,699.701843 439.728943,694.919495 
	C442.962524,695.918640 446.196136,696.917786 449.789124,698.044006 
z"/>
<path fill="#000000" opacity="1.000000" stroke="none" 
	d="
M667.061646,675.129883 
	C650.223206,672.206848 633.769592,673.397644 617.340393,674.574158 
	C599.351746,675.862305 582.355469,680.573120 566.607971,689.634888 
	C562.921387,691.756287 558.875793,693.617737 554.336609,693.338806 
	C550.688721,693.114624 547.757507,691.520203 546.687561,687.961548 
	C545.661926,684.550232 548.540222,682.972473 550.789612,681.266235 
	C567.722229,668.421387 587.055481,662.354309 607.982971,659.758179 
	C638.402344,655.984558 668.414917,658.803284 698.404175,663.562805 
	C703.581421,664.384583 708.202942,666.496216 712.548401,669.491699 
	C714.951111,671.148071 716.039917,672.710571 715.182373,675.637329 
	C714.315918,678.594482 712.622009,680.128662 709.511658,680.261841 
	C702.660828,680.554993 695.877502,680.021606 689.129639,678.865723 
	C681.921875,677.631104 674.710205,676.418945 667.061646,675.129883 
z"/>
<path fill="#000000" opacity="1.000000" stroke="none" 
	d="
M660.397217,690.959595 
	C653.716125,691.134705 647.362793,691.864258 640.860901,687.313232 
	C649.505432,686.167847 657.101501,686.663208 665.045105,688.722778 
	C664.091492,690.999878 662.321594,690.713379 660.397217,690.959595 
z"/>
<path fill="#000000" opacity="1.000000" stroke="none" 
	d="
M377.222595,563.071655 
	C365.616211,557.779480 360.304718,541.942993 363.409637,530.845154 
	C366.796936,518.737976 380.004700,508.590454 391.472260,508.893402 
	C404.902954,509.248260 417.998627,520.980103 419.284363,533.809021 
	C420.838989,549.320984 411.859039,561.832092 396.980194,565.208130 
	C390.222260,566.741516 383.804657,566.202271 377.222595,563.071655 
M380.329315,534.034180 
	C380.342896,535.531372 380.200714,537.049500 380.399017,538.521790 
	C381.019440,543.128235 384.902496,547.129761 389.073914,547.626892 
	C394.273285,548.246460 399.232605,545.557312 401.388580,540.949707 
	C403.393372,536.665100 402.367798,531.899658 398.759033,528.731384 
	C391.843018,522.659546 384.427551,524.489136 380.329315,534.034180 
z"/>
<path fill="#000000" opacity="1.000000" stroke="none" 
	d="
M537.947632,261.399292 
	C542.966064,274.269836 540.631409,285.940460 532.310303,295.836670 
	C524.324463,305.334259 513.230835,308.216187 501.110962,305.987518 
	C486.553955,303.310699 478.716553,292.904022 476.768372,277.560272 
	C474.552185,260.105164 487.906067,248.436325 500.246033,244.818069 
	C514.968140,240.501312 529.965332,246.991394 537.947632,261.399292 
M499.570709,262.956787 
	C494.593384,266.475525 493.688599,271.529480 494.406403,277.086517 
	C495.256409,283.666992 502.803558,290.007690 509.126343,289.606964 
	C517.258972,289.091522 522.777771,283.309418 522.728394,275.355865 
	C522.653381,263.271423 511.411377,256.881104 499.570709,262.956787 
z"/>
</svg>